<svg width="40" height="92" viewBox="0 0 40 92" fill="none" xmlns="http://www.w3.org/2000/svg">
<rect width="40" height="92" rx="20" fill="#F6EFED"/>
<path d="M26 46L24.5 46.375C23.8454 46.4323 23.1862 46.3455 22.5687 46.1207C21.9513 45.896 21.3905 45.5387 20.9259 45.0741C20.4613 44.6095 20.104 44.0487 19.8793 43.4312C19.6545 42.8138 19.5677 42.1546 19.625 41.5L20 40M26 46L20 40M26 46C26 47.1867 25.6481 48.3467 24.9888 49.3334C24.3295 50.3201 23.3925 51.0892 22.2961 51.5433C21.1997 51.9974 19.9933 52.1162 18.8295 51.8847C17.6656 51.6532 16.5965 51.0818 15.7574 50.2426C14.9182 49.4035 14.3468 48.3344 14.1153 47.1705C13.8838 46.0067 14.0026 44.8003 14.4567 43.7039C14.9109 42.6075 15.6799 41.6705 16.6666 41.0112C17.6533 40.3519 18.8133 40 20 40" stroke="#28635B" stroke-width="1.5" stroke-linecap="round" stroke-linejoin="round"/>
</svg>
