<svg width="40" height="92" viewBox="0 0 40 92" fill="none" xmlns="http://www.w3.org/2000/svg">
<rect width="40" height="92" rx="20" fill="#A9C9C5"/>
<path d="M18.125 39.25H21.875C22.1734 39.25 22.4595 39.3685 22.6705 39.5795C22.8815 39.7905 23 40.0766 23 40.375C23 41.0712 22.7234 41.7389 22.2312 42.2312C21.7389 42.7234 21.0712 43 20.375 43H19.625C18.9288 43 18.2611 42.7234 17.7688 42.2312C17.2766 41.7389 17 41.0712 17 40.375C17 40.0766 17.1185 39.7905 17.3295 39.5795C17.5405 39.3685 17.8266 39.25 18.125 39.25Z" stroke="#28635B" stroke-width="1.5" stroke-linecap="round" stroke-linejoin="round"/>
<path d="M14 49.75V49C14 47.4087 14.6321 45.8826 15.7574 44.7574C16.8826 43.6321 18.4087 43 20 43C21.5913 43 23.1174 43.6321 24.2426 44.7574C25.3679 45.8826 26 47.4087 26 49V49.75C26 50.5456 25.6839 51.3087 25.1213 51.8713C24.5587 52.4339 23.7956 52.75 23 52.75H17C16.2044 52.75 15.4413 52.4339 14.8787 51.8713C14.3161 51.3087 14 50.5456 14 49.75Z" stroke="#28635B" stroke-width="1.5" stroke-linecap="round" stroke-linejoin="round"/>
</svg>
