<svg width="28" height="28" viewBox="0 0 28 28" fill="none" xmlns="http://www.w3.org/2000/svg">
<path d="M20.2417 10.5583L17.5117 19.355C16.8584 21.4433 13.93 21.4783 13.2417 19.4017L12.425 16.9867C12.2034 16.3217 11.6784 15.785 11.0134 15.575L8.5867 14.7583C6.5217 14.07 6.5567 11.1183 8.64503 10.4883L17.4417 7.74667C19.1684 7.22167 20.79 8.84334 20.2417 10.5583Z" stroke="#323232" stroke-width="1.5" stroke-linecap="round" stroke-linejoin="round"/>
<path d="M10.5 25.6667H17.5C23.3333 25.6667 25.6666 23.3333 25.6666 17.5V10.5C25.6666 4.66668 23.3333 2.33334 17.5 2.33334H10.5C4.66665 2.33334 2.33331 4.66668 2.33331 10.5V17.5C2.33331 23.3333 4.66665 25.6667 10.5 25.6667Z" stroke="#323232" stroke-width="1.5" stroke-linecap="round" stroke-linejoin="round"/>
</svg>
